<svg width="50" height="50" viewBox="0 0 50 50" fill="none" xmlns="http://www.w3.org/2000/svg">
<g id="dashicons-games">
<path id="Vector" d="M39.7502 13.7496C38.2502 11.2496 35.5002 9.99963 32.5002 9.99963H17.5002C14.5002 9.99963 11.7502 11.2496 10.2502 13.7496C4.50017 22.4996 3.25017 35.7496 7.25017 38.4996C11.2502 41.2496 20.2502 29.2496 25.0002 29.2496C29.7502 29.2496 38.5002 41.2496 42.7502 38.4996C46.7502 35.7496 45.5002 22.4996 39.7502 13.7496ZM20.0002 22.4996H17.5002V24.9996H15.0002V22.4996H12.5002V19.9996H15.0002V17.4996H17.5002V19.9996H20.0002V22.4996ZM33.5002 23.7496C33.5002 24.9996 32.5002 25.9996 31.2502 25.9996C30.0002 25.9996 29.0002 24.9996 29.0002 23.7496C29.0002 22.4996 30.0002 21.4996 31.2502 21.4996C32.5002 21.4996 33.5002 22.4996 33.5002 23.7496ZM38.2502 18.7496C38.2502 19.9996 37.2502 20.9996 36.0002 20.9996C34.7502 20.9996 33.7502 19.9996 33.7502 18.7496C33.7502 17.4996 34.7502 16.4996 36.0002 16.4996C37.2502 16.4996 38.2502 17.4996 38.2502 18.7496Z" fill="#FFB61D"/>
</g>
</svg>
