<svg width="50" height="50" viewBox="0 0 50 50" fill="none" xmlns="http://www.w3.org/2000/svg">
<g id="dashicons-businessman">
<path id="Vector" d="M42.5003 42.25V36C42.5003 34.25 42.2503 32.5 41.2503 30.75C40.2503 29 39.0003 27.5 37.2503 26.5C35.5003 25.25 31.7503 25 30.0003 25L26.0003 29.25L27.5003 32.5V40L25.0003 42.75L22.5003 40V32.5L24.2503 29.25L20.0003 25C18.0003 25 14.2503 25.25 12.5003 26.5C10.7503 27.5 9.75031 29 8.75031 30.75C7.75031 32.5 7.50031 34 7.50031 36V42.25C7.50031 42.25 14.0003 45 25.0003 45C36.0003 45 42.5003 42.25 42.5003 42.25Z" fill="#FFB61D"/>
<path id="Vector_2" d="M24.9998 5.25012C20.2498 5.25012 17.4998 9.75012 18.2498 14.7501C18.9998 19.7501 21.4998 23.2501 24.9998 23.2501C28.4998 23.2501 30.9998 19.7501 31.7498 14.7501C32.4998 9.50012 29.7498 5.25012 24.9998 5.25012Z" fill="#FFB61D"/>
</g>
</svg>
