<svg width="50" height="50" viewBox="0 0 50 50" fill="none" xmlns="http://www.w3.org/2000/svg">
<g id="dashicons-location-alt">
<path id="Vector" d="M32.5007 32.85L35.4257 18C37.4007 16.925 38.7507 14.875 38.7507 12.5C38.7507 10.8424 38.0922 9.25269 36.9201 8.08058C35.748 6.90848 34.1583 6.25 32.5007 6.25C30.8431 6.25 29.2534 6.90848 28.0813 8.08058C26.9091 9.25269 26.2507 10.8424 26.2507 12.5C26.2507 14.875 27.6007 16.925 29.5757 18L32.5007 32.85ZM32.5007 8.75C34.5757 8.75 36.2507 10.425 36.2507 12.5C36.2507 14.575 34.5757 16.25 32.5007 16.25C30.4257 16.25 28.7507 14.575 28.7507 12.5C28.7507 10.425 30.4257 8.75 32.5007 8.75ZM36.8007 20.75L45.0007 17.425V39.925L32.8007 45L17.5007 39.925L5.00067 44.925V22.425L17.5007 17.425L28.1757 20.95L32.5007 39.2L36.8007 20.75Z" fill="#FFB61D"/>
</g>
</svg>
