<svg width="50" height="50" viewBox="0 0 50 50" fill="none" xmlns="http://www.w3.org/2000/svg">
<g id="dashicons-clock">
<path id="Vector" d="M25.0007 4.99988C36.0507 4.99988 45.0007 13.9499 45.0007 24.9999C45.0007 36.0499 36.0507 44.9999 25.0007 44.9999C13.9507 44.9999 5.00067 36.0499 5.00067 24.9999C5.00067 13.9499 13.9507 4.99988 25.0007 4.99988ZM25.0007 39.9999C33.2757 39.9999 40.0007 33.2749 40.0007 24.9999C40.0007 16.7249 33.2757 9.99988 25.0007 9.99988C16.7257 9.99988 10.0007 16.7249 10.0007 24.9999C10.0007 33.2749 16.7257 39.9999 25.0007 39.9999ZM23.2257 26.7749C23.4007 26.8999 23.5757 27.0249 23.8007 27.1499L23.7507 27.1999L35.0007 32.4999L27.4257 24.5249L25.0007 12.4999L22.5757 24.5249H22.6007C22.6007 24.5749 22.5757 24.6499 22.5507 24.7499C22.5257 24.8499 22.5007 24.9249 22.5007 24.9999C22.5007 25.6999 22.7507 26.2999 23.2257 26.7749Z" fill="#FFB61D"/>
</g>
</svg>
