<svg width="35" height="35" viewBox="0 0 35 35" fill="none" xmlns="http://www.w3.org/2000/svg">
<g id="dashicons-warning">
<path id="Vector" d="M17.5005 3.49988C25.2355 3.49988 31.5005 9.76488 31.5005 17.4999C31.5005 25.2349 25.2355 31.4999 17.5005 31.4999C9.76547 31.4999 3.50047 25.2349 3.50047 17.4999C3.50047 9.76488 9.76547 3.49988 17.5005 3.49988ZM19.478 19.9149L20.0905 8.60988H14.9105L15.523 19.9149H19.478ZM19.3205 25.7949C19.7405 25.3924 19.968 24.8324 19.968 24.1149C19.968 23.3799 19.758 22.8199 19.338 22.4174C18.918 22.0149 18.3055 21.8049 17.483 21.8049C16.6605 21.8049 16.048 22.0149 15.6105 22.4174C15.173 22.8199 14.963 23.3799 14.963 24.1149C14.963 24.8324 15.1905 25.3924 15.628 25.7949C16.083 26.1974 16.6955 26.3899 17.483 26.3899C18.2705 26.3899 18.883 26.1974 19.3205 25.7949Z" fill="white"/>
</g>
</svg>
