<svg width="63" height="63" viewBox="0 0 63 63" fill="none" xmlns="http://www.w3.org/2000/svg">
<g id="dashicons-location">
<path id="Vector" d="M31.4992 6.2998C21.0727 6.2998 12.5992 14.7733 12.5992 25.1998C12.5992 31.5628 16.2847 36.8863 20.5687 40.6033C21.9232 41.7688 24.2857 43.6273 26.3962 46.3678C28.7272 49.4233 30.8377 52.6993 31.4992 54.9043C32.1607 52.6993 34.2712 49.4233 36.6022 46.3678C38.7127 43.6273 41.0752 41.7688 42.4297 40.6033C46.7137 36.8863 50.3992 31.5628 50.3992 25.1998C50.3992 14.7733 41.9257 6.2998 31.4992 6.2998ZM31.4992 14.3638C32.9222 14.3638 34.3313 14.6441 35.6459 15.1886C36.9606 15.7332 38.1552 16.5314 39.1614 17.5376C40.1676 18.5438 40.9658 19.7384 41.5103 21.053C42.0549 22.3677 42.3352 23.7768 42.3352 25.1998C42.3352 26.6228 42.0549 28.0319 41.5103 29.3466C40.9658 30.6612 40.1676 31.8558 39.1614 32.862C38.1552 33.8682 36.9606 34.6664 35.6459 35.211C34.3313 35.7555 32.9222 36.0358 31.4992 36.0358C28.6253 36.0358 25.8691 34.8942 23.837 32.862C21.8048 30.8299 20.6632 28.0737 20.6632 25.1998C20.6632 22.3259 21.8048 19.5697 23.837 17.5376C25.8691 15.5055 28.6253 14.3638 31.4992 14.3638Z" fill="#FFB61D"/>
</g>
</svg>
