<svg width="50" height="50" viewBox="0 0 50 50" fill="none" xmlns="http://www.w3.org/2000/svg">
<g id="dashicons-format-chat">
<path id="Vector" d="M27.5003 14.9999H25.4503C22.6753 14.9999 20.0003 17.9999 20.0003 20.3999V24.9999L12.5003 32.4999V24.9999H7.50034C4.75034 24.9999 2.50034 22.7499 2.50034 19.9999V7.49988C2.50034 4.74988 4.75034 2.49988 7.50034 2.49988H22.5003C25.2503 2.49988 27.5003 4.74988 27.5003 7.49988V14.9999ZM27.5003 17.4999H42.5003C45.2503 17.4999 47.5003 19.7499 47.5003 22.4999V34.9999C47.5003 37.7499 45.2503 39.9999 42.5003 39.9999H37.5003V47.4999L30.0003 39.9999H27.5003C24.7503 39.9999 22.5003 37.7499 22.5003 34.9999V22.4999C22.5003 19.7499 24.7503 17.4999 27.5003 17.4999Z" fill="#FFB61D"/>
</g>
</svg>
