<svg width="34" height="34" viewBox="0 0 34 34" fill="none" xmlns="http://www.w3.org/2000/svg">
<g id="dashicons-phone">
<path id="Vector" d="M23.7999 20.5015L24.1399 20.1445C25.0579 19.2605 25.4829 19.4135 26.3499 20.2805L31.0249 24.9045C32.4189 26.2815 33.0819 26.5365 31.8409 27.8455L31.5009 28.2025L23.7999 20.5015ZM23.0349 21.4025L30.5149 28.8825C28.9169 30.0725 24.6159 32.8605 21.4369 31.4835C18.5979 30.2425 18.4619 29.6305 16.3369 28.0835C12.7499 24.9385 8.90793 20.9775 6.01793 17.8835C4.47093 15.7415 3.75693 15.6565 2.61793 12.7835C1.41093 9.72348 4.13093 5.30348 5.26993 3.63748L12.7499 11.1175L9.99593 13.1235C9.21393 13.7015 10.0979 15.1635 11.1179 16.1835C12.9029 17.9515 16.5239 21.5895 18.0369 22.9835C19.0399 23.9865 20.5019 24.8875 21.0969 24.1055L23.0349 21.4025ZM5.94993 2.66848L6.30693 2.31148C7.56493 1.15548 7.83693 1.81848 9.19693 3.19548L13.8209 7.85348C14.6539 8.72048 14.8409 9.12848 14.0079 10.0125L13.6509 10.3525L5.94993 2.66848Z" fill="white"/>
</g>
</svg>
