<svg width="32" height="32" viewBox="0 0 32 32" fill="none" xmlns="http://www.w3.org/2000/svg">
<g id="twitter">
<path id="Vector" d="M30.6667 4.00022C29.3898 4.90086 27.9761 5.5897 26.48 6.04022C25.677 5.1169 24.6098 4.46248 23.4227 4.16546C22.2356 3.86844 20.986 3.94315 19.8428 4.3795C18.6996 4.81584 17.7179 5.59276 17.0306 6.60518C16.3434 7.6176 15.9836 8.81667 16 10.0402V11.3736C13.6568 11.4343 11.335 10.9146 9.24134 9.86082C7.14766 8.807 5.34709 7.25174 4 5.33356C4 5.33356 -1.33333 17.3336 10.6667 22.6669C7.9207 24.5308 4.64954 25.4655 1.33333 25.3336C13.3333 32.0002 28 25.3336 28 10.0002C27.9988 9.62883 27.9631 9.25835 27.8933 8.89356C29.2541 7.55155 30.2144 5.85717 30.6667 4.00022V4.00022Z" stroke="#FFB61D" stroke-width="2" stroke-linecap="round" stroke-linejoin="round"/>
</g>
</svg>
